<?plantuml 1.2026.2beta3?><svg xmlns="http://www.w3.org/2000/svg" xmlns:xlink="http://www.w3.org/1999/xlink" contentStyleType="text/css" data-diagram-type="ACTIVITY" height="1079px" preserveAspectRatio="none" style="width:2224px;height:1079px;background:#FFFFFF;" version="1.1" viewBox="0 0 2224 1079" width="2224px" zoomAndPan="magnify"><title>FTC &#8212; Fluxo T&#233;cnico Conversacional (CORE Orquestrador)</title><defs/><g><g class="title" data-source-line="1"><text fill="#000000" font-family="sans-serif" font-size="14" font-weight="bold" lengthAdjust="spacing" textLength="457.2559" x="882.0586" y="32.9951">FTC &#8212; Fluxo T&#233;cnico Conversacional (CORE Orquestrador)</text></g><ellipse cx="1382.3955" cy="57.2969" fill="#222222" rx="10" ry="10" style="stroke:#222222;stroke-width:1;"/><rect fill="#F8F8F8" height="61.9063" rx="12.5" ry="12.5" style="stroke:#2E2E2E;stroke-width:0.5;" width="182.1641" x="1291.3135" y="87.2969"/><text fill="#000000" font-family="sans-serif" font-size="12" lengthAdjust="spacing" textLength="162.1641" x="1301.3135" y="108.4355">'EV_MENSAGEM_RECEBIDA</text><text fill="#000000" font-family="sans-serif" font-size="12" lengthAdjust="spacing" textLength="129.3457" x="1301.3135" y="122.4043">EV_AUDIO_RECEBIDO</text><text fill="#000000" font-family="sans-serif" font-size="12" lengthAdjust="spacing" textLength="141.9668" x="1301.3135" y="136.373">EV_EVENTO_PROATIVO'</text><path d="M1505.9873,173.0391 L1505.9873,189.1719 L1485.9873,193.1719 L1505.9873,197.1719 L1505.9873,213.3047 A0,0 0 0 0 1505.9873,213.3047 L1779.4019,213.3047 A0,0 0 0 0 1779.4019,213.3047 L1779.4019,183.0391 L1769.4019,173.0391 L1505.9873,173.0391 A0,0 0 0 0 1505.9873,173.0391" fill="#FFF9C4" style="stroke:#181818;stroke-width:0.5;"/><path d="M1769.4019,173.0391 L1769.4019,183.0391 L1779.4019,183.0391 L1769.4019,173.0391" fill="#FFF9C4" style="stroke:#181818;stroke-width:0.5;"/><text fill="#000000" font-family="sans-serif" font-size="13" lengthAdjust="spacing" textLength="155.9175" x="1511.9873" y="190.106">Ponto &#250;nico de entrada.</text><text fill="#000000" font-family="sans-serif" font-size="13" lengthAdjust="spacing" textLength="252.4146" x="1511.9873" y="205.2388">Nenhum m&#243;dulo recebe evento direto.</text><rect fill="#F8F8F8" height="47.9375" rx="12.5" ry="12.5" style="stroke:#2E2E2E;stroke-width:0.5;" width="207.1836" x="1278.8037" y="169.2031"/><text fill="#000000" font-family="sans-serif" font-size="12" lengthAdjust="spacing" textLength="33.7441" x="1288.8037" y="190.3418">CORE</text><text fill="#000000" font-family="sans-serif" font-size="12" lengthAdjust="spacing" textLength="187.1836" x="1288.8037" y="204.3105">E_CORE_ENTRADA_MENSAGEM</text><rect fill="#F8F8F8" height="47.9375" rx="12.5" ry="12.5" style="stroke:#2E2E2E;stroke-width:0.5;" width="217.3379" x="1273.7266" y="237.1406"/><text fill="#000000" font-family="sans-serif" font-size="12" lengthAdjust="spacing" textLength="33.7441" x="1283.7266" y="258.2793">CORE</text><text fill="#000000" font-family="sans-serif" font-size="12" lengthAdjust="spacing" textLength="197.3379" x="1283.7266" y="272.248">E_CORE_IDENTIFICAR_INTENCAO</text><rect fill="#F8F8F8" height="47.9375" rx="12.5" ry="12.5" style="stroke:#2E2E2E;stroke-width:0.5;" width="202.7715" x="1281.0098" y="305.0781"/><text fill="#000000" font-family="sans-serif" font-size="12" lengthAdjust="spacing" textLength="33.7441" x="1291.0098" y="326.2168">CORE</text><text fill="#000000" font-family="sans-serif" font-size="12" lengthAdjust="spacing" textLength="182.7715" x="1291.0098" y="340.1855">E_CORE_VALIDAR_CONFIANCA</text><polygon fill="#F8F8F8" points="1285.2029,373.0156,1479.5881,373.0156,1491.5881,385.0156,1479.5881,397.0156,1285.2029,397.0156,1273.2029,385.0156,1285.2029,373.0156" style="stroke:#2E2E2E;stroke-width:0.5;"/><text fill="#000000" font-family="sans-serif" font-size="11" lengthAdjust="spacing" textLength="194.3853" x="1285.2029" y="388.8237">ST_NIVEL_CONFIANCA &gt;= m&#237;nimo?</text><text fill="#000000" font-family="sans-serif" font-size="11" lengthAdjust="spacing" textLength="19.7173" x="1253.4856" y="382.4214">SIM</text><text fill="#000000" font-family="sans-serif" font-size="11" lengthAdjust="spacing" textLength="24.4116" x="1491.5881" y="382.4214">N&#195;O</text><rect fill="#F8F8F8" height="47.9375" rx="12.5" ry="12.5" style="stroke:#2E2E2E;stroke-width:0.5;" width="188.0938" x="785.8936" y="407.0156"/><text fill="#000000" font-family="sans-serif" font-size="12" lengthAdjust="spacing" textLength="33.7441" x="795.8936" y="428.1543">CORE</text><text fill="#000000" font-family="sans-serif" font-size="12" lengthAdjust="spacing" textLength="168.0938" x="795.8936" y="442.123">E_CORE_VALIDAR_HORARIO</text><rect fill="#F8F8F8" height="47.9375" rx="12.5" ry="12.5" style="stroke:#2E2E2E;stroke-width:0.5;" width="209.0176" x="775.4316" y="482.4141"/><text fill="#000000" font-family="sans-serif" font-size="12" lengthAdjust="spacing" textLength="33.7441" x="785.4316" y="503.5527">CORE</text><text fill="#000000" font-family="sans-serif" font-size="12" lengthAdjust="spacing" textLength="189.0176" x="785.4316" y="517.5215">E_CORE_VERIFICAR_HISTORICO</text><rect fill="#F8F8F8" height="47.9375" rx="12.5" ry="12.5" style="stroke:#2E2E2E;stroke-width:0.5;" width="169.2207" x="795.3301" y="550.3516"/><text fill="#000000" font-family="sans-serif" font-size="12" lengthAdjust="spacing" textLength="33.7441" x="805.3301" y="571.4902">CORE</text><text fill="#000000" font-family="sans-serif" font-size="12" lengthAdjust="spacing" textLength="149.2207" x="805.3301" y="585.459">E_CORE_DECIDIR_FLUXO</text><polygon fill="#F8F8F8" points="56.3069,618.2891,222.6228,618.2891,234.6228,630.2891,222.6228,642.2891,56.3069,642.2891,44.3069,630.2891,56.3069,618.2891" style="stroke:#2E2E2E;stroke-width:0.5;"/><text fill="#000000" font-family="sans-serif" font-size="11" lengthAdjust="spacing" textLength="71.5537" x="143.4648" y="652.4995">OR&#199;AMENTO</text><text fill="#000000" font-family="sans-serif" font-size="11" lengthAdjust="spacing" textLength="166.3159" x="56.3069" y="634.0972">EV_DIRECIONAR_ORCAMENTO</text><rect fill="#F8F8F8" height="33.9688" rx="12.5" ry="12.5" style="stroke:#2E2E2E;stroke-width:0.5;" width="201.4355" x="38.7471" y="673.9995"/><text fill="#000000" font-family="sans-serif" font-size="12" lengthAdjust="spacing" textLength="181.4355" x="48.7471" y="695.1382">EV_DIRECIONAR_ORCAMENTO</text><rect fill="#F8F8F8" height="47.9375" rx="12.5" ry="12.5" style="stroke:#2E2E2E;stroke-width:0.5;" width="162.1602" x="58.3848" y="727.9683"/><text fill="#000000" font-family="sans-serif" font-size="12" lengthAdjust="spacing" textLength="93.3574" x="68.3848" y="749.1069">G_ORCAMENTO</text><text fill="#000000" font-family="sans-serif" font-size="12" lengthAdjust="spacing" textLength="142.1602" x="68.3848" y="763.0757">E_ORCAMENTO_INICIAR</text><rect fill="#F8F8F8" height="33.9688" rx="12.5" ry="12.5" style="stroke:#2E2E2E;stroke-width:0.5;" width="256.9297" x="11" y="798.4878"/><text fill="#000000" font-family="sans-serif" font-size="12" lengthAdjust="spacing" textLength="236.9297" x="21" y="819.6265">(... estados internos G_ORCAMENTO ...)</text><rect fill="#F8F8F8" height="33.9688" rx="12.5" ry="12.5" style="stroke:#2E2E2E;stroke-width:0.5;" width="161.1992" x="58.8652" y="852.4565"/><text fill="#000000" font-family="sans-serif" font-size="12" lengthAdjust="spacing" textLength="141.1992" x="68.8652" y="873.5952">EV_RETORNO_MODULO</text><polygon fill="#F8F8F8" points="323.9509,618.2891,505.9827,618.2891,517.9827,630.2891,505.9827,642.2891,323.9509,642.2891,311.9509,630.2891,323.9509,618.2891" style="stroke:#2E2E2E;stroke-width:0.5;"/><text fill="#000000" font-family="sans-serif" font-size="11" lengthAdjust="spacing" textLength="87.2695" x="418.9668" y="652.4995">AGENDAMENTO</text><text fill="#000000" font-family="sans-serif" font-size="11" lengthAdjust="spacing" textLength="182.0317" x="323.9509" y="634.0972">EV_DIRECIONAR_AGENDAMENTO</text><rect fill="#F8F8F8" height="33.9688" rx="12.5" ry="12.5" style="stroke:#2E2E2E;stroke-width:0.5;" width="218.5801" x="305.6768" y="673.9995"/><text fill="#000000" font-family="sans-serif" font-size="12" lengthAdjust="spacing" textLength="198.5801" x="315.6768" y="695.1382">EV_DIRECIONAR_AGENDAMENTO</text><rect fill="#F8F8F8" height="47.9375" rx="12.5" ry="12.5" style="stroke:#2E2E2E;stroke-width:0.5;" width="179.3047" x="325.3145" y="727.9683"/><text fill="#000000" font-family="sans-serif" font-size="12" lengthAdjust="spacing" textLength="110.502" x="335.3145" y="749.1069">G_AGENDAMENTO</text><text fill="#000000" font-family="sans-serif" font-size="12" lengthAdjust="spacing" textLength="159.3047" x="335.3145" y="763.0757">E_AGENDAMENTO_INICIAR</text><rect fill="#F8F8F8" height="33.9688" rx="12.5" ry="12.5" style="stroke:#2E2E2E;stroke-width:0.5;" width="274.0742" x="277.9297" y="798.4878"/><text fill="#000000" font-family="sans-serif" font-size="12" lengthAdjust="spacing" textLength="254.0742" x="287.9297" y="819.6265">(... estados internos G_AGENDAMENTO ...)</text><rect fill="#F8F8F8" height="33.9688" rx="12.5" ry="12.5" style="stroke:#2E2E2E;stroke-width:0.5;" width="161.1992" x="334.3672" y="852.4565"/><text fill="#000000" font-family="sans-serif" font-size="12" lengthAdjust="spacing" textLength="141.1992" x="344.3672" y="873.5952">EV_RETORNO_MODULO</text><polygon fill="#F8F8F8" points="605.0815,618.2891,722.354,618.2891,734.354,630.2891,722.354,642.2891,605.0815,642.2891,593.0815,630.2891,605.0815,618.2891" style="stroke:#2E2E2E;stroke-width:0.5;"/><text fill="#000000" font-family="sans-serif" font-size="11" lengthAdjust="spacing" textLength="22.5103" x="667.7178" y="652.4995">FAQ</text><text fill="#000000" font-family="sans-serif" font-size="11" lengthAdjust="spacing" textLength="117.2725" x="605.0815" y="634.0972">EV_DIRECIONAR_FAQ</text><rect fill="#F8F8F8" height="33.9688" rx="12.5" ry="12.5" style="stroke:#2E2E2E;stroke-width:0.5;" width="147.9336" x="589.751" y="673.9995"/><text fill="#000000" font-family="sans-serif" font-size="12" lengthAdjust="spacing" textLength="127.9336" x="599.751" y="695.1382">EV_DIRECIONAR_FAQ</text><rect fill="#F8F8F8" height="47.9375" rx="12.5" ry="12.5" style="stroke:#2E2E2E;stroke-width:0.5;" width="108.6582" x="609.3887" y="727.9683"/><text fill="#000000" font-family="sans-serif" font-size="12" lengthAdjust="spacing" textLength="39.8555" x="619.3887" y="749.1069">G_FAQ</text><text fill="#000000" font-family="sans-serif" font-size="12" lengthAdjust="spacing" textLength="88.6582" x="619.3887" y="763.0757">E_FAQ_INICIAR</text><rect fill="#F8F8F8" height="33.9688" rx="12.5" ry="12.5" style="stroke:#2E2E2E;stroke-width:0.5;" width="203.4277" x="562.0039" y="798.4878"/><text fill="#000000" font-family="sans-serif" font-size="12" lengthAdjust="spacing" textLength="183.4277" x="572.0039" y="819.6265">(... estados internos G_FAQ ...)</text><rect fill="#F8F8F8" height="33.9688" rx="12.5" ry="12.5" style="stroke:#2E2E2E;stroke-width:0.5;" width="161.1992" x="583.1182" y="852.4565"/><text fill="#000000" font-family="sans-serif" font-size="12" lengthAdjust="spacing" textLength="141.1992" x="593.1182" y="873.5952">EV_RETORNO_MODULO</text><polygon fill="#F8F8F8" points="855.1584,618.2891,992.9001,618.2891,1004.9001,630.2891,992.9001,642.2891,855.1584,642.2891,843.1584,630.2891,855.1584,618.2891" style="stroke:#2E2E2E;stroke-width:0.5;"/><text fill="#000000" font-family="sans-serif" font-size="11" lengthAdjust="spacing" textLength="42.9795" x="928.0293" y="652.4995">STATUS</text><text fill="#000000" font-family="sans-serif" font-size="11" lengthAdjust="spacing" textLength="137.7417" x="855.1584" y="634.0972">EV_DIRECIONAR_STATUS</text><rect fill="#F8F8F8" height="33.9688" rx="12.5" ry="12.5" style="stroke:#2E2E2E;stroke-width:0.5;" width="170.2637" x="838.8975" y="673.9995"/><text fill="#000000" font-family="sans-serif" font-size="12" lengthAdjust="spacing" textLength="150.2637" x="848.8975" y="695.1382">EV_DIRECIONAR_STATUS</text><rect fill="#F8F8F8" height="47.9375" rx="12.5" ry="12.5" style="stroke:#2E2E2E;stroke-width:0.5;" width="134.4688" x="856.7949" y="727.9683"/><text fill="#000000" font-family="sans-serif" font-size="12" lengthAdjust="spacing" textLength="114.4688" x="866.7949" y="749.1069">G_STATUS_PEDIDO</text><text fill="#000000" font-family="sans-serif" font-size="12" lengthAdjust="spacing" textLength="110.9883" x="866.7949" y="763.0757">E_STATUS_INICIAR</text><rect fill="#F8F8F8" height="33.9688" rx="12.5" ry="12.5" style="stroke:#2E2E2E;stroke-width:0.5;" width="278.041" x="785.0088" y="798.4878"/><text fill="#000000" font-family="sans-serif" font-size="12" lengthAdjust="spacing" textLength="258.041" x="795.0088" y="819.6265">(... estados internos G_STATUS_PEDIDO ...)</text><rect fill="#F8F8F8" height="33.9688" rx="12.5" ry="12.5" style="stroke:#2E2E2E;stroke-width:0.5;" width="161.1992" x="843.4297" y="852.4565"/><text fill="#000000" font-family="sans-serif" font-size="12" lengthAdjust="spacing" textLength="141.1992" x="853.4297" y="873.5952">EV_RETORNO_MODULO</text><polygon fill="#F8F8F8" points="1127.9446,618.2891,1285.1941,618.2891,1297.1941,630.2891,1285.1941,642.2891,1127.9446,642.2891,1115.9446,630.2891,1127.9446,618.2891" style="stroke:#2E2E2E;stroke-width:0.5;"/><text fill="#000000" font-family="sans-serif" font-size="11" lengthAdjust="spacing" textLength="62.4873" x="1210.5693" y="652.4995">COBRAN&#199;A</text><text fill="#000000" font-family="sans-serif" font-size="11" lengthAdjust="spacing" textLength="157.2495" x="1127.9446" y="634.0972">EV_DIRECIONAR_COBRANCA</text><rect fill="#F8F8F8" height="33.9688" rx="12.5" ry="12.5" style="stroke:#2E2E2E;stroke-width:0.5;" width="191.5449" x="1110.7969" y="673.9995"/><text fill="#000000" font-family="sans-serif" font-size="12" lengthAdjust="spacing" textLength="171.5449" x="1120.7969" y="695.1382">EV_DIRECIONAR_COBRANCA</text><rect fill="#F8F8F8" height="47.9375" rx="12.5" ry="12.5" style="stroke:#2E2E2E;stroke-width:0.5;" width="152.2695" x="1130.4346" y="727.9683"/><text fill="#000000" font-family="sans-serif" font-size="12" lengthAdjust="spacing" textLength="83.4668" x="1140.4346" y="749.1069">G_COBRANCA</text><text fill="#000000" font-family="sans-serif" font-size="12" lengthAdjust="spacing" textLength="132.2695" x="1140.4346" y="763.0757">E_COBRANCA_INICIAR</text><rect fill="#F8F8F8" height="33.9688" rx="12.5" ry="12.5" style="stroke:#2E2E2E;stroke-width:0.5;" width="247.0391" x="1083.0498" y="798.4878"/><text fill="#000000" font-family="sans-serif" font-size="12" lengthAdjust="spacing" textLength="227.0391" x="1093.0498" y="819.6265">(... estados internos G_COBRANCA ...)</text><rect fill="#F8F8F8" height="33.9688" rx="12.5" ry="12.5" style="stroke:#2E2E2E;stroke-width:0.5;" width="161.1992" x="1125.9697" y="852.4565"/><text fill="#000000" font-family="sans-serif" font-size="12" lengthAdjust="spacing" textLength="141.1992" x="1135.9697" y="873.5952">EV_RETORNO_MODULO</text><polygon fill="#F8F8F8" points="1395.6599,618.2891,1567.7874,618.2891,1579.7874,630.2891,1567.7874,642.2891,1395.6599,642.2891,1383.6599,630.2891,1395.6599,618.2891" style="stroke:#2E2E2E;stroke-width:0.5;"/><text fill="#000000" font-family="sans-serif" font-size="11" lengthAdjust="spacing" textLength="77.3652" x="1485.7236" y="652.4995">PROPAGANDA</text><text fill="#000000" font-family="sans-serif" font-size="11" lengthAdjust="spacing" textLength="172.1274" x="1395.6599" y="634.0972">EV_DIRECIONAR_PROPAGANDA</text><text fill="#000000" font-family="sans-serif" font-size="11" lengthAdjust="spacing" textLength="57.4009" x="1579.7874" y="627.6948">FINALIZAR</text><rect fill="#F8F8F8" height="33.9688" rx="12.5" ry="12.5" style="stroke:#2E2E2E;stroke-width:0.5;" width="207.7754" x="1377.8359" y="673.9995"/><text fill="#000000" font-family="sans-serif" font-size="12" lengthAdjust="spacing" textLength="187.7754" x="1387.8359" y="695.1382">EV_DIRECIONAR_PROPAGANDA</text><rect fill="#F8F8F8" height="47.9375" rx="12.5" ry="12.5" style="stroke:#2E2E2E;stroke-width:0.5;" width="251.0059" x="1356.2207" y="727.9683"/><text fill="#000000" font-family="sans-serif" font-size="12" lengthAdjust="spacing" textLength="99.6973" x="1366.2207" y="749.1069">G_PROPAGANDA</text><text fill="#000000" font-family="sans-serif" font-size="12" lengthAdjust="spacing" textLength="231.0059" x="1366.2207" y="763.0757">E_PROPAGANDA_VALIDAR_CAMPANHA</text><rect fill="#F8F8F8" height="33.9688" rx="12.5" ry="12.5" style="stroke:#2E2E2E;stroke-width:0.5;" width="263.2695" x="1350.0889" y="798.4878"/><text fill="#000000" font-family="sans-serif" font-size="12" lengthAdjust="spacing" textLength="243.2695" x="1360.0889" y="819.6265">(... estados internos G_PROPAGANDA ...)</text><rect fill="#F8F8F8" height="33.9688" rx="12.5" ry="12.5" style="stroke:#2E2E2E;stroke-width:0.5;" width="161.1992" x="1401.124" y="852.4565"/><text fill="#000000" font-family="sans-serif" font-size="12" lengthAdjust="spacing" textLength="141.1992" x="1411.124" y="873.5952">EV_RETORNO_MODULO</text><rect fill="#F8F8F8" height="47.9375" rx="12.5" ry="12.5" style="stroke:#2E2E2E;stroke-width:0.5;" width="135.9453" x="1633.3584" y="730.5503"/><text fill="#000000" font-family="sans-serif" font-size="12" lengthAdjust="spacing" textLength="33.7441" x="1643.3584" y="751.689">CORE</text><text fill="#000000" font-family="sans-serif" font-size="12" lengthAdjust="spacing" textLength="115.9453" x="1643.3584" y="765.6577">E_CORE_FINALIZAR</text><ellipse cx="1701.3311" cy="812.0698" fill="none" rx="11" ry="11" style="stroke:#222222;stroke-width:1;"/><ellipse cx="1701.3311" cy="812.0698" fill="#222222" rx="6" ry="6" style="stroke:#222222;stroke-width:1;"/><rect fill="#F8F8F8" height="47.9375" rx="12.5" ry="12.5" style="stroke:#2E2E2E;stroke-width:0.5;" width="192.7344" x="783.5732" y="926.4253"/><text fill="#000000" font-family="sans-serif" font-size="12" lengthAdjust="spacing" textLength="33.7441" x="793.5732" y="947.564">CORE</text><text fill="#000000" font-family="sans-serif" font-size="12" lengthAdjust="spacing" textLength="172.7344" x="793.5732" y="961.5327">E_CORE_RETORNO_MODULO</text><polygon fill="#F8F8F8" points="813.1294,1009.3628,946.7515,1009.3628,958.7515,1021.3628,946.7515,1033.3628,813.1294,1033.3628,801.1294,1021.3628,813.1294,1009.3628" style="stroke:#2E2E2E;stroke-width:0.5;"/><text fill="#000000" font-family="sans-serif" font-size="11" lengthAdjust="spacing" textLength="133.6221" x="813.1294" y="1025.1709">Continuar atendimento?</text><text fill="#000000" font-family="sans-serif" font-size="11" lengthAdjust="spacing" textLength="25.6201" x="958.7515" y="993.1592">start</text><text fill="#000000" font-family="sans-serif" font-size="11" lengthAdjust="spacing" textLength="58.8135" x="958.7515" y="1005.9639">else (N&#195;O)</text><text fill="#000000" font-family="sans-serif" font-size="11" lengthAdjust="spacing" textLength="151.5991" x="965.7446" y="1018.7686">:CORE\nE_CORE_FINALIZAR</text><ellipse cx="1139.3438" cy="1021.3628" fill="none" rx="11" ry="11" style="stroke:#222222;stroke-width:1;"/><ellipse cx="1139.3438" cy="1021.3628" fill="#222222" rx="6" ry="6" style="stroke:#222222;stroke-width:1;"/><path d="M2000.3975,407.0156 L2000.3975,430.7148 L1980.3975,434.7148 L2000.3975,438.7148 L2000.3975,462.4141 A0,0 0 0 0 2000.3975,462.4141 L2212.373,462.4141 A0,0 0 0 0 2212.373,462.4141 L2212.373,417.0156 L2202.373,407.0156 L2000.3975,407.0156 A0,0 0 0 0 2000.3975,407.0156" fill="#FFF9C4" style="stroke:#181818;stroke-width:0.5;"/><path d="M2202.373,407.0156 L2202.373,417.0156 L2212.373,417.0156 L2202.373,407.0156" fill="#FFF9C4" style="stroke:#181818;stroke-width:0.5;"/><text fill="#000000" font-family="sans-serif" font-size="13" lengthAdjust="spacing" textLength="178.8325" x="2006.3975" y="424.0825">Nenhuma resposta t&#233;cnica.</text><text fill="#000000" font-family="sans-serif" font-size="13" lengthAdjust="spacing" textLength="190.9756" x="2006.3975" y="439.2153">Pode solicitar esclarecimento</text><text fill="#000000" font-family="sans-serif" font-size="13" lengthAdjust="spacing" textLength="128.6987" x="2006.3975" y="454.3481">ou escalar humano.</text><rect fill="#F8F8F8" height="47.9375" rx="12.5" ry="12.5" style="stroke:#2E2E2E;stroke-width:0.5;" width="191.0938" x="1789.3037" y="410.7461"/><text fill="#000000" font-family="sans-serif" font-size="12" lengthAdjust="spacing" textLength="33.7441" x="1799.3037" y="431.8848">CORE</text><text fill="#000000" font-family="sans-serif" font-size="12" lengthAdjust="spacing" textLength="171.0938" x="1799.3037" y="445.8535">E_CORE_APLICAR_FALLBACK</text><rect fill="#F8F8F8" height="33.9688" rx="12.5" ry="12.5" style="stroke:#2E2E2E;stroke-width:0.5;" width="61.8184" x="1853.9414" y="489.875"/><text fill="#000000" font-family="sans-serif" font-size="12" lengthAdjust="spacing" textLength="41.8184" x="1863.9414" y="511.0137">&gt; start</text><polygon fill="#F8F8F8" points="1382.3955,1043.3628,1394.3955,1055.3628,1382.3955,1067.3628,1370.3955,1055.3628,1382.3955,1043.3628" style="stroke:#2E2E2E;stroke-width:0.5;"/><line style="stroke:#181818;stroke-width:1;" x1="1382.3955" x2="1382.3955" y1="67.2969" y2="87.2969"/><polygon fill="#181818" points="1378.3955,77.2969,1382.3955,87.2969,1386.3955,77.2969,1382.3955,81.2969" style="stroke:#181818;stroke-width:1;"/><line style="stroke:#181818;stroke-width:1;" x1="1382.3955" x2="1382.3955" y1="149.2031" y2="169.2031"/><polygon fill="#181818" points="1378.3955,159.2031,1382.3955,169.2031,1386.3955,159.2031,1382.3955,163.2031" style="stroke:#181818;stroke-width:1;"/><line style="stroke:#181818;stroke-width:1;" x1="1382.3955" x2="1382.3955" y1="217.1406" y2="237.1406"/><polygon fill="#181818" points="1378.3955,227.1406,1382.3955,237.1406,1386.3955,227.1406,1382.3955,231.1406" style="stroke:#181818;stroke-width:1;"/><line style="stroke:#181818;stroke-width:1;" x1="1382.3955" x2="1382.3955" y1="285.0781" y2="305.0781"/><polygon fill="#181818" points="1378.3955,295.0781,1382.3955,305.0781,1386.3955,295.0781,1382.3955,299.0781" style="stroke:#181818;stroke-width:1;"/><line style="stroke:#181818;stroke-width:1;" x1="879.9404" x2="879.9404" y1="454.9531" y2="482.4141"/><polygon fill="#181818" points="875.9404,472.4141,879.9404,482.4141,883.9404,472.4141,879.9404,476.4141" style="stroke:#181818;stroke-width:1;"/><line style="stroke:#181818;stroke-width:1;" x1="879.9404" x2="879.9404" y1="530.3516" y2="550.3516"/><polygon fill="#181818" points="875.9404,540.3516,879.9404,550.3516,883.9404,540.3516,879.9404,544.3516" style="stroke:#181818;stroke-width:1;"/><line style="stroke:#181818;stroke-width:1;" x1="139.4648" x2="139.4648" y1="707.9683" y2="727.9683"/><polygon fill="#181818" points="135.4648,717.9683,139.4648,727.9683,143.4648,717.9683,139.4648,721.9683" style="stroke:#181818;stroke-width:1;"/><line style="stroke:#181818;stroke-width:1;" x1="139.4648" x2="139.4648" y1="775.9058" y2="798.4878"/><polygon fill="#181818" points="135.4648,788.4878,139.4648,798.4878,143.4648,788.4878,139.4648,792.4878" style="stroke:#181818;stroke-width:1;"/><line style="stroke:#181818;stroke-width:1;" x1="139.4648" x2="139.4648" y1="832.4565" y2="852.4565"/><polygon fill="#181818" points="135.4648,842.4565,139.4648,852.4565,143.4648,842.4565,139.4648,846.4565" style="stroke:#181818;stroke-width:1;"/><line style="stroke:#181818;stroke-width:1;" x1="414.9668" x2="414.9668" y1="707.9683" y2="727.9683"/><polygon fill="#181818" points="410.9668,717.9683,414.9668,727.9683,418.9668,717.9683,414.9668,721.9683" style="stroke:#181818;stroke-width:1;"/><line style="stroke:#181818;stroke-width:1;" x1="414.9668" x2="414.9668" y1="775.9058" y2="798.4878"/><polygon fill="#181818" points="410.9668,788.4878,414.9668,798.4878,418.9668,788.4878,414.9668,792.4878" style="stroke:#181818;stroke-width:1;"/><line style="stroke:#181818;stroke-width:1;" x1="414.9668" x2="414.9668" y1="832.4565" y2="852.4565"/><polygon fill="#181818" points="410.9668,842.4565,414.9668,852.4565,418.9668,842.4565,414.9668,846.4565" style="stroke:#181818;stroke-width:1;"/><line style="stroke:#181818;stroke-width:1;" x1="663.7178" x2="663.7178" y1="707.9683" y2="727.9683"/><polygon fill="#181818" points="659.7178,717.9683,663.7178,727.9683,667.7178,717.9683,663.7178,721.9683" style="stroke:#181818;stroke-width:1;"/><line style="stroke:#181818;stroke-width:1;" x1="663.7178" x2="663.7178" y1="775.9058" y2="798.4878"/><polygon fill="#181818" points="659.7178,788.4878,663.7178,798.4878,667.7178,788.4878,663.7178,792.4878" style="stroke:#181818;stroke-width:1;"/><line style="stroke:#181818;stroke-width:1;" x1="663.7178" x2="663.7178" y1="832.4565" y2="852.4565"/><polygon fill="#181818" points="659.7178,842.4565,663.7178,852.4565,667.7178,842.4565,663.7178,846.4565" style="stroke:#181818;stroke-width:1;"/><line style="stroke:#181818;stroke-width:1;" x1="924.0293" x2="924.0293" y1="707.9683" y2="727.9683"/><polygon fill="#181818" points="920.0293,717.9683,924.0293,727.9683,928.0293,717.9683,924.0293,721.9683" style="stroke:#181818;stroke-width:1;"/><line style="stroke:#181818;stroke-width:1;" x1="924.0293" x2="924.0293" y1="775.9058" y2="798.4878"/><polygon fill="#181818" points="920.0293,788.4878,924.0293,798.4878,928.0293,788.4878,924.0293,792.4878" style="stroke:#181818;stroke-width:1;"/><line style="stroke:#181818;stroke-width:1;" x1="924.0293" x2="924.0293" y1="832.4565" y2="852.4565"/><polygon fill="#181818" points="920.0293,842.4565,924.0293,852.4565,928.0293,842.4565,924.0293,846.4565" style="stroke:#181818;stroke-width:1;"/><line style="stroke:#181818;stroke-width:1;" x1="1206.5693" x2="1206.5693" y1="707.9683" y2="727.9683"/><polygon fill="#181818" points="1202.5693,717.9683,1206.5693,727.9683,1210.5693,717.9683,1206.5693,721.9683" style="stroke:#181818;stroke-width:1;"/><line style="stroke:#181818;stroke-width:1;" x1="1206.5693" x2="1206.5693" y1="775.9058" y2="798.4878"/><polygon fill="#181818" points="1202.5693,788.4878,1206.5693,798.4878,1210.5693,788.4878,1206.5693,792.4878" style="stroke:#181818;stroke-width:1;"/><line style="stroke:#181818;stroke-width:1;" x1="1206.5693" x2="1206.5693" y1="832.4565" y2="852.4565"/><polygon fill="#181818" points="1202.5693,842.4565,1206.5693,852.4565,1210.5693,842.4565,1206.5693,846.4565" style="stroke:#181818;stroke-width:1;"/><line style="stroke:#181818;stroke-width:1;" x1="1481.7236" x2="1481.7236" y1="707.9683" y2="727.9683"/><polygon fill="#181818" points="1477.7236,717.9683,1481.7236,727.9683,1485.7236,717.9683,1481.7236,721.9683" style="stroke:#181818;stroke-width:1;"/><line style="stroke:#181818;stroke-width:1;" x1="1481.7236" x2="1481.7236" y1="775.9058" y2="798.4878"/><polygon fill="#181818" points="1477.7236,788.4878,1481.7236,798.4878,1485.7236,788.4878,1481.7236,792.4878" style="stroke:#181818;stroke-width:1;"/><line style="stroke:#181818;stroke-width:1;" x1="1481.7236" x2="1481.7236" y1="832.4565" y2="852.4565"/><polygon fill="#181818" points="1477.7236,842.4565,1481.7236,852.4565,1485.7236,842.4565,1481.7236,846.4565" style="stroke:#181818;stroke-width:1;"/><line style="stroke:#181818;stroke-width:1;" x1="1701.3311" x2="1701.3311" y1="778.4878" y2="801.0698"/><polygon fill="#181818" points="1697.3311,791.0698,1701.3311,801.0698,1705.3311,791.0698,1701.3311,795.0698" style="stroke:#181818;stroke-width:1;"/><line style="stroke:#181818;stroke-width:1;" x1="139.4648" x2="139.4648" y1="642.2891" y2="673.9995"/><polygon fill="#181818" points="135.4648,663.9995,139.4648,673.9995,143.4648,663.9995,139.4648,667.9995" style="stroke:#181818;stroke-width:1;"/><line style="stroke:#181818;stroke-width:1;" x1="139.4648" x2="139.4648" y1="886.4253" y2="906.4253"/><polygon fill="#181818" points="135.4648,896.4253,139.4648,906.4253,143.4648,896.4253,139.4648,900.4253" style="stroke:#181818;stroke-width:1;"/><line style="stroke:#181818;stroke-width:1;" x1="414.9668" x2="414.9668" y1="642.2891" y2="673.9995"/><polygon fill="#181818" points="410.9668,663.9995,414.9668,673.9995,418.9668,663.9995,414.9668,667.9995" style="stroke:#181818;stroke-width:1;"/><line style="stroke:#181818;stroke-width:1;" x1="414.9668" x2="414.9668" y1="886.4253" y2="906.4253"/><polygon fill="#181818" points="410.9668,896.4253,414.9668,906.4253,418.9668,896.4253,414.9668,900.4253" style="stroke:#181818;stroke-width:1;"/><line style="stroke:#181818;stroke-width:1;" x1="663.7178" x2="663.7178" y1="642.2891" y2="673.9995"/><polygon fill="#181818" points="659.7178,663.9995,663.7178,673.9995,667.7178,663.9995,663.7178,667.9995" style="stroke:#181818;stroke-width:1;"/><line style="stroke:#181818;stroke-width:1;" x1="663.7178" x2="663.7178" y1="886.4253" y2="906.4253"/><polygon fill="#181818" points="659.7178,896.4253,663.7178,906.4253,667.7178,896.4253,663.7178,900.4253" style="stroke:#181818;stroke-width:1;"/><line style="stroke:#181818;stroke-width:1;" x1="924.0293" x2="924.0293" y1="642.2891" y2="673.9995"/><polygon fill="#181818" points="920.0293,663.9995,924.0293,673.9995,928.0293,663.9995,924.0293,667.9995" style="stroke:#181818;stroke-width:1;"/><line style="stroke:#181818;stroke-width:1;" x1="924.0293" x2="924.0293" y1="886.4253" y2="906.4253"/><polygon fill="#181818" points="920.0293,896.4253,924.0293,906.4253,928.0293,896.4253,924.0293,900.4253" style="stroke:#181818;stroke-width:1;"/><line style="stroke:#181818;stroke-width:1;" x1="1206.5693" x2="1206.5693" y1="642.2891" y2="673.9995"/><polygon fill="#181818" points="1202.5693,663.9995,1206.5693,673.9995,1210.5693,663.9995,1206.5693,667.9995" style="stroke:#181818;stroke-width:1;"/><line style="stroke:#181818;stroke-width:1;" x1="1206.5693" x2="1206.5693" y1="886.4253" y2="906.4253"/><polygon fill="#181818" points="1202.5693,896.4253,1206.5693,906.4253,1210.5693,896.4253,1206.5693,900.4253" style="stroke:#181818;stroke-width:1;"/><line style="stroke:#181818;stroke-width:1;" x1="1481.7236" x2="1481.7236" y1="642.2891" y2="673.9995"/><polygon fill="#181818" points="1477.7236,663.9995,1481.7236,673.9995,1485.7236,663.9995,1481.7236,667.9995" style="stroke:#181818;stroke-width:1;"/><line style="stroke:#181818;stroke-width:1;" x1="1481.7236" x2="1481.7236" y1="886.4253" y2="906.4253"/><polygon fill="#181818" points="1477.7236,896.4253,1481.7236,906.4253,1485.7236,896.4253,1481.7236,900.4253" style="stroke:#181818;stroke-width:1;"/><line style="stroke:#181818;stroke-width:1;" x1="234.6228" x2="311.9509" y1="630.2891" y2="630.2891"/><polygon fill="#181818" points="301.9509,626.2891,311.9509,630.2891,301.9509,634.2891,305.9509,630.2891" style="stroke:#181818;stroke-width:1;"/><line style="stroke:#181818;stroke-width:1;" x1="517.9827" x2="593.0815" y1="630.2891" y2="630.2891"/><polygon fill="#181818" points="583.0815,626.2891,593.0815,630.2891,583.0815,634.2891,587.0815,630.2891" style="stroke:#181818;stroke-width:1;"/><line style="stroke:#181818;stroke-width:1;" x1="734.354" x2="843.1584" y1="630.2891" y2="630.2891"/><polygon fill="#181818" points="833.1584,626.2891,843.1584,630.2891,833.1584,634.2891,837.1584,630.2891" style="stroke:#181818;stroke-width:1;"/><line style="stroke:#181818;stroke-width:1;" x1="1004.9001" x2="1115.9446" y1="630.2891" y2="630.2891"/><polygon fill="#181818" points="1105.9446,626.2891,1115.9446,630.2891,1105.9446,634.2891,1109.9446,630.2891" style="stroke:#181818;stroke-width:1;"/><line style="stroke:#181818;stroke-width:1;" x1="1297.1941" x2="1383.6599" y1="630.2891" y2="630.2891"/><polygon fill="#181818" points="1373.6599,626.2891,1383.6599,630.2891,1373.6599,634.2891,1377.6599,630.2891" style="stroke:#181818;stroke-width:1;"/><line style="stroke:#181818;stroke-width:1;" x1="879.9404" x2="879.9404" y1="598.2891" y2="603.2891"/><line style="stroke:#181818;stroke-width:1;" x1="879.9404" x2="139.4648" y1="603.2891" y2="603.2891"/><line style="stroke:#181818;stroke-width:1;" x1="139.4648" x2="139.4648" y1="603.2891" y2="618.2891"/><polygon fill="#181818" points="135.4648,608.2891,139.4648,618.2891,143.4648,608.2891,139.4648,612.2891" style="stroke:#181818;stroke-width:1;"/><line style="stroke:#181818;stroke-width:1;" x1="1579.7874" x2="1701.3311" y1="630.2891" y2="630.2891"/><line style="stroke:#181818;stroke-width:1;" x1="1701.3311" x2="1701.3311" y1="630.2891" y2="730.5503"/><polygon fill="#181818" points="1697.3311,720.5503,1701.3311,730.5503,1705.3311,720.5503,1701.3311,724.5503" style="stroke:#181818;stroke-width:1;"/><line style="stroke:#181818;stroke-width:1;" x1="139.4648" x2="1481.7236" y1="906.4253" y2="906.4253"/><line style="stroke:#181818;stroke-width:1;" x1="879.9404" x2="879.9404" y1="906.4253" y2="926.4253"/><polygon fill="#181818" points="875.9404,916.4253,879.9404,926.4253,883.9404,916.4253,879.9404,920.4253" style="stroke:#181818;stroke-width:1;"/><line style="stroke:#181818;stroke-width:1;" x1="879.9404" x2="879.9404" y1="1033.3628" y2="1055.3628"/><line style="stroke:#181818;stroke-width:1;" x1="879.9404" x2="1370.3955" y1="1055.3628" y2="1055.3628"/><polygon fill="#181818" points="1360.3955,1051.3628,1370.3955,1055.3628,1360.3955,1059.3628,1364.3955,1055.3628" style="stroke:#181818;stroke-width:1;"/><line style="stroke:#181818;stroke-width:1;" x1="958.7515" x2="1128.3438" y1="1021.3628" y2="1021.3628"/><polygon fill="#181818" points="1118.3438,1017.3628,1128.3438,1021.3628,1118.3438,1025.3628,1122.3438,1021.3628" style="stroke:#181818;stroke-width:1;"/><line style="stroke:#181818;stroke-width:1;" x1="879.9404" x2="879.9404" y1="974.3628" y2="1009.3628"/><polygon fill="#181818" points="875.9404,999.3628,879.9404,1009.3628,883.9404,999.3628,879.9404,1003.3628" style="stroke:#181818;stroke-width:1;"/><line style="stroke:#181818;stroke-width:1;" x1="1884.8506" x2="1884.8506" y1="458.6836" y2="489.875"/><polygon fill="#181818" points="1880.8506,479.875,1884.8506,489.875,1888.8506,479.875,1884.8506,483.875" style="stroke:#181818;stroke-width:1;"/><line style="stroke:#181818;stroke-width:1;" x1="1273.2029" x2="879.9404" y1="385.0156" y2="385.0156"/><line style="stroke:#181818;stroke-width:1;" x1="879.9404" x2="879.9404" y1="385.0156" y2="407.0156"/><polygon fill="#181818" points="875.9404,397.0156,879.9404,407.0156,883.9404,397.0156,879.9404,401.0156" style="stroke:#181818;stroke-width:1;"/><line style="stroke:#181818;stroke-width:1;" x1="1491.5881" x2="1884.8506" y1="385.0156" y2="385.0156"/><line style="stroke:#181818;stroke-width:1;" x1="1884.8506" x2="1884.8506" y1="385.0156" y2="410.7461"/><polygon fill="#181818" points="1880.8506,400.7461,1884.8506,410.7461,1888.8506,400.7461,1884.8506,404.7461" style="stroke:#181818;stroke-width:1;"/><line style="stroke:#181818;stroke-width:1;" x1="1884.8506" x2="1884.8506" y1="523.8438" y2="1055.3628"/><line style="stroke:#181818;stroke-width:1;" x1="1884.8506" x2="1394.3955" y1="1055.3628" y2="1055.3628"/><polygon fill="#181818" points="1404.3955,1051.3628,1394.3955,1055.3628,1404.3955,1059.3628,1400.3955,1055.3628" style="stroke:#181818;stroke-width:1;"/><line style="stroke:#181818;stroke-width:1;" x1="1382.3955" x2="1382.3955" y1="353.0156" y2="373.0156"/><polygon fill="#181818" points="1378.3955,363.0156,1382.3955,373.0156,1386.3955,363.0156,1382.3955,367.0156" style="stroke:#181818;stroke-width:1;"/><?plantuml-src dPNFRjCm7CVlUGfB7BOTw05n02g6tCJPBDguk6c545AK9TvcBRM7uquWX8J4WHVW9JXmuiQrRyAJy7FJfEaQH6bpYFtxvy_NTVopqXO2XR6FVd_-Xi9YyLwZUFazKpBJoDVgJfWopQHMQO6EVSO9OkRTGfJMfBas9vvNtaXrcvfqZYxIxERAw8NAVLreWnw4gryh8isil9Fs0_he8JJG9XTc7Vg8kCTPTueySO_tgLL6QIi67OizzHy3ZqsDzRndHsIMZ4WqmMTab73Yam4Dy5i5LZmDAAjDR6KYCnB5B1bpXcCwOqTzAE34WZDnxmJS70UugTZt70GoykhQUcEjh4RBNwizomKIokrEslCYeQuNSpHV_imNXKP6PE82t7V2nUVI2Ajxdb3vIj7z9Ma0YzAG-fWdD8f9v6FMlnSpmqDGnM4IXHH3183BItGyYPE8piXmuq2dpu7ZXv9p_U84sMkX88gEu0z4gBlcEUEOKrXo9u3mDTOvdSICKxyZA20-3IXFmk7qDRZ1xxXWgy48BXP1EkC-7hcDhu4ONtvTMo01IlublbzvppOMjsupWUsYFiLy7NRSw_KGd5Wui2MIoWgZOD1AHX1mqczMv0H4HImPiM0whDX5KOfTVZW8KR2je6tgaj3oDo9QDYUZDTrJI2lZK2aXVbLBSCCkTB0to31sgF3Q4n4Y3qMRn3YUJfepMysw02jNmrXDap49gg-yDkm7l9LzABhF1jnzV3LyDOSptibVHpSAQaFrKLNZFV7hy4F9uIOSupCCnwfcRrcwu3Vk1dzZSW8siysjXKTZ79tZVsZPPEwd1eumZM29DvYlKRTkfiPP5IgjldM9AfUNkvTXnn9kiw0nMgaMgK6fTPbpTwDltwkkziDJLBMZ6YnQVc7_pTHEtG74u-7gAWxnS3Z0_ajNeDMQgWwKGkifRpMm85lrTcXEOmsjgjI5p2GmmiPdHGeTgjBYwOMpf612he1gDwgMi1NY7m00?></g></svg>